<?xml version="1.0" standalone="no"?><svg xmlns:xlink="http://www.w3.org/1999/xlink" xmlns="http://www.w3.org/2000/svg" viewBox="0 0 1000 142.8496583143508" preserveAspectRatio="xMaxYMax slice"><g transform="scale(1.1389521640091116)"><rect x="0" y="0" width="878" height="125.42857142857143" fill="#ffffff"/><rect x="0" y="0" width="125.43" height="125.43" fill="#faf6ee"/><path d="M 0 125.43 A 125.43 125.43 0 0 0 125.43 0 L 0 0" fill="#d6dbd2"/><rect x="125.42857142857143" y="0" width="125.42857142857143" height="125.42857142857143" fill="#ffffff"/><rect x="125.43" y="0" width="62.71" height="62.71" fill="#fdfcf9"/><polygon points="125.43,0 188.14000000000001,0 125.43,62.71" fill="#c9cfc3"/><rect x="188.14" y="0" width="62.71" height="62.71" fill="#b8c0b0"/><polygon points="188.14,0 250.85,0 250.85,62.71" fill="#f0f2ee"/><rect x="125.43" y="62.71" width="62.71" height="62.71" fill="#fefdfb"/><polygon points="125.43,62.71 188.14000000000001,125.42 125.43,125.42" fill="#fbfbfa"/><rect x="188.14" y="62.71" width="62.71" height="62.71" fill="#faf7f0"/><polygon points="250.85,62.71 250.85,125.42 188.14,125.42" fill="#d4d9cf"/><rect x="250.85714285714286" y="0" width="125.42857142857143" height="125.42857142857143" fill="#ffffff"/><rect x="250.86" y="0" width="62.71" height="62.71" fill="#fefefd"/><polygon points="250.86,0 313.57,0 250.86,62.71" fill="#dde0d9"/><rect x="313.57" y="0" width="62.71" height="62.71" fill="#faf6ed"/><polygon points="313.57,0 376.28,0 376.28,62.71" fill="#bcc3b4"/><rect x="250.86" y="62.71" width="62.71" height="62.71" fill="#f8f4ea"/><polygon points="250.86,62.71 313.57,125.42 250.86,125.42" fill="#fcfaf6"/><rect x="313.57" y="62.71" width="62.71" height="62.71" fill="#fdfcfa"/><polygon points="376.28,62.71 376.28,125.42 313.57,125.42" fill="#e4e7e1"/><rect x="376.29" y="0" width="125.43" height="125.43" fill="#f7f2e5"/><path d="M 376.29 0 A 125.43 125.43 0 0 1  501.72 125.43 L 376.29 0 A 125.43 125.43 0 0 0 501.72 125.43" fill="#e5e8e2"/><rect x="501.71" y="0" width="125.43" height="125.43" fill="#faf7f0"/><rect x="501.71" y="0" width="125.43" height="125.43" fill="#dbdfd7"/><rect x="627.1428571428571" y="0" width="125.42857142857143" height="125.42857142857143" fill="#ffffff"/><rect x="627.14" y="0" width="62.71" height="62.71" fill="#bec5b7"/><path d="M 627.14 0 A 62.71 62.71 0 0 1 689.85 62.71 L 627.14 62.71" fill="#f9f5ec"/><rect x="689.86" y="0" width="62.71" height="62.71" fill="#d7dcd3"/><path d="M 689.86 62.71 A 62.71 62.71 0 0 1  752.57 0 L 752.57 62.71" fill="#d2d7cd"/><rect x="627.14" y="62.71" width="62.71" height="62.71" fill="#eaece7"/><path d="M 627.14 125.42 A 62.71 62.71 0 0 0 689.85 62.71 L 627.14 62.71" fill="#cdd3c8"/><rect x="689.86" y="62.71" width="62.71" height="62.71" fill="#f7f1e5"/><path d="M 689.86 62.71 A 62.71 62.71 0 0 0 752.57 125.42 L 752.57 62.71" fill="#f8f3e9"/><rect x="752.57" y="0" width="125.43" height="125.43" fill="#f9f4ea"/><path d="M 752.57 125.43 A 125.43 125.43 0 0 1  878 0 L 878 125.43" fill="#f7f1e4"/></g></svg>